Patient4_TMGait_0pt2_02_left_02_EMG.mot
version=1
nRows=20
nColumns=33
inDegrees=no
endheader
time	1LAddLong	2LGlutMax	3LGlutMed	4LIliopsoas	5LSemiMemb	6LBicFemLong	7LRecFem	8LVastMed	9LVastLat	10LGasMed	11LTibAnt	12lTibPost	13LPeroneusLong	14LSol	15LExtDigLong	16LFlexDigLong	17RAddLong	18RGlutMax	19RGlutMed	20RIliopsoas	21RSemiMemb	22RBicFemLong	23RRecFem	24RVastMed	25RVastLat	26RGasMed	27RTibAnt	28RTibPost	29RPeroneusLong	30RSol	31RExtDigLong	32RFlexDigLong
6.623	0.005188	0.0914	-0.008698	0.012817	0.010071	-0.019379	-0.061951	0.001526	0.000305	-0.001678	0.005035	-0.005646	0.033417	0.025787	-0.006256	0.020294	-0.027161	0.20035	0.70908	-0.2301	-0.050964	0.007782	-0.001526	0.63934	0.21881	-0.005646	-0.011139	-0.41702	0.18448	-0.025482	-0.005951	-0.005493
6.624	0.002747	0.099792	0.11017	-0.006409	0.012512	-0.022125	-0.039215	-0.007172	0.001526	0.010986	0.004578	-0.060883	0.024567	0.02655	-0.005646	0.007935	-0.020447	0.15106	0.24719	-0.20309	-0.076141	0.077209	0.13504	-0.13657	0.11795	-0.007629	0.036926	-0.20462	0.014038	-0.31662	-0.002441	-0.008545
6.625	0.002289	0.076599	0.1178	0.034485	0.00885	-0.007629	-0.043945	0.016327	0.005341	0.002594	-0.003052	-0.027008	0.032501	0.021515	-0.018768	0.009766	0.009155	0.18387	-0.19134	-0.007324	-0.068665	0.076447	0.037231	-0.73654	0.1442	-0.007019	0.036011	0.41367	0.42526	-0.383	-0.001373	-0.004578
6.626	0.005951	0.088348	0.083466	0.021667	0.014801	-0.005188	-0.040588	-0.006104	0.000305	-0.011292	0.001831	0.011597	0.052948	0.020905	-0.01358	0.006714	0.03418	0.29785	-0.62714	0.10651	-0.035858	0.050812	-0.17349	-0.74524	0.14069	-0.007019	0.068817	0.1535	0.36453	0.13687	-0.00061	-0.005493
6.627	0.009308	0.10071	0.15915	0.029449	0.016479	-0.018158	-0.036163	-0.006866	0	-0.004578	-0.001373	0.006409	0.026398	0.019226	-0.003815	0.011139	0.050354	0.38513	-0.53818	0.10025	0.040283	0.002441	-0.18646	-0.76935	0.14053	-0.00946	0.072937	0.01236	0.055084	0.50323	0	-0.002747
6.628	0.006714	0.094299	0.15854	0.007477	0.013885	-0.011902	-0.033722	0.020294	0.017548	0.005493	0.004272	0.008545	0.020905	0.014648	-0.006104	0.007629	0.021057	0.34058	0.12054	0.050201	-0.032349	-0.039673	-0.016174	-0.43503	0.11139	0.005798	0.015564	0.062714	-0.33112	0.13473	-0.002899	-0.00946
6.629	0.003357	0.096741	0.14282	0.005493	0.007477	-0.007629	-0.04364	0.008087	0.020142	0.00412	0.006256	0.000305	0.018616	0.019226	-0.01709	0.017395	0.007324	0.32547	0.22827	0.022888	-0.12421	-0.049591	0.074463	-0.18707	0.040588	0.009613	-0.026855	0.045776	-0.11673	-0.078735	0.001221	-0.003357
6.63	0.005798	0.062561	0.10376	0.013123	0.009155	-0.030823	-0.041962	-0.004578	0.012665	-0.019836	0.003204	-0.001984	0.021057	0.009155	-0.038605	0.013428	0.04715	0.16281	0.60501	0.019379	-0.1355	-0.054474	0.19623	-0.055389	0.000305	0.009308	-0.06424	0.005493	-0.14587	-0.040436	0.000916	-0.010376
6.631	-0.000916	0.03479	0.09613	0.006561	0.009766	-0.015259	-0.017853	0.010071	0.00473	-0.01236	0.031433	-0.023346	0.025177	0.007782	0.007324	0.005646	0.033875	0.089417	0.48614	0.1265	-0.14175	-0.087738	0.20371	-0.099792	-0.057373	0.014191	-0.02243	-0.016022	-1.2627	-0.22812	-0.002289	-0.014648
6.632	0.004883	0.033264	0.072937	0.018921	0.007782	-0.039673	-0.026093	0.009613	0.010071	-0.006409	0.041809	-0.035248	0.016632	0.002441	0.07431	0.01297	0.037079	0.12314	-0.082855	0.16052	-0.097504	-0.10498	0.18158	-0.058136	-0.01709	-0.000305	0.055542	-0.11993	-0.68344	-0.22034	-0.001831	-0.011597
6.633	-0.003815	0.038605	0.068207	0.03006	0.009308	-0.022278	-0.007782	0.00824	0.000153	-0.00473	0.011444	0.007019	0.041656	0.026398	0.016174	0.011292	-0.01297	0.15656	-0.2359	0.14069	-0.026093	-0.11368	0.1445	0.21454	0.036621	0.007324	-0.005493	-0.17685	1.0794	-0.11353	0.006714	-0.016785
6.634	0.002136	0.015717	0.079346	0.036163	0.009613	-0.032654	0.001221	-0.004425	-0.005035	-0.004272	-0.002594	0.012665	0.042419	0.010834	0.003662	0.023041	-0.044556	0.14587	-0.32303	0.12009	0.21591	0.037994	0.075684	0.10162	0.066681	-0.005798	-0.030975	0.056	1.7091	-0.046234	0.003357	-0.011444
6.635	0.00946	0.027161	0.062561	0.042725	0.005951	-0.019989	0.00885	0.009918	-0.007019	0.010681	0.010681	0.005798	0.033569	0.012054	-0.001678	0.007019	0.013885	0.031891	-0.15121	0.057068	0.21439	0.083008	-0.054932	-0.17685	0.050812	-0.020752	0.077972	0.045319	0.60379	-0.1033	-0.001526	-0.02243
6.636	0.006561	0.022125	0.041351	0.031738	0.012665	-0.011292	0.007782	0.005951	0.001984	-0.002136	0.016632	0.00061	0.036926	-0.000916	-0.005493	-0.000305	0.045776	0.023956	-0.21927	-0.031281	0.029297	0.055542	0.00946	-0.44723	-0.019379	0.009766	0.053406	0.000305	0.096588	-0.00946	-0.000305	-0.010071
6.637	0.005493	0.024414	-0.027161	0.0177	0.000153	-0.010071	-0.003204	0.003357	-0.000153	0.002899	0.024261	-0.000458	0.039978	0.010376	-0.007782	-0.003052	0.061798	0.13534	-0.23148	-0.093994	-0.044708	0.062256	0.087433	-0.52475	-0.18112	0.018158	0.07782	-0.020447	-0.20981	-0.16403	-0.001678	-0.001678
6.638	0.006866	0.03952	-0.031433	0.00824	0.010529	-0.004425	0.018005	0.003052	-0.007935	-0.000458	0.012817	-0.003204	0.033112	0.008698	-0.009308	0.012665	0.057678	0.17059	-0.52551	-0.086365	-0.013733	0.039825	0.21454	-0.52033	-0.24521	0.074005	0.020905	-0.016174	0.21957	-0.39597	-0.002136	0.002594
6.639	0.006256	0.012817	-0.063019	0.021362	0.000916	0.00824	0.008087	0.013733	-0.013885	-0.001373	0.024414	-0.038147	0.046234	0.006409	-0.005493	0.003052	0.054169	0.079193	-0.41504	-0.054932	0.003662	0.090485	0.21698	-0.35614	-0.21088	0.049896	0.058289	-0.055695	-0.89645	-0.42709	-0.001526	0.00824
6.64	-0.001526	0.010529	-0.010376	0.006866	0.007935	-0.003052	0.016632	0.005188	-0.000305	0.001831	0.019989	0	0.037689	0.019226	-0.003357	0.006409	0.036316	0.046844	-0.16922	0.054321	0.006561	0.12161	0.13565	0.007782	-0.098724	-0.034637	0.04425	-0.13031	-0.51285	0.028534	-0.001373	-0.004425
6.641	0.006256	0.020447	0.060883	-0.007629	0.005951	0.004425	0.015564	0.002441	-0.013428	0.010681	0.002594	-0.003967	0.027161	0.001831	0.019989	0.00473	-0.004578	-0.013275	-0.20371	0.063324	0.025024	0.044556	0.017395	-0.090637	-0.042267	-0.046387	0.066681	0.016022	-0.78583	0.02655	0.007324	-0.003967
6.642	0.012512	0.009918	0.069885	-0.007172	0.010376	-0.010834	0.011444	0.019531	-0.001221	-0.00061	0.011902	0.008545	0.026703	0.016632	0.030975	-0.003052	-0.012665	0.027313	-0.18799	0.067139	0.024719	0.011902	-0.026093	-0.045624	0.032349	0.005798	0.011902	-0.12726	0.44235	0.42084	-0.00061	0.000305
